<svg xmlns="http://www.w3.org/2000/svg" viewBox="0 0 512 512" id="emergency-medical-services-logo"><path fill="#0062ff" d="M421.93,69c-4.81.14-10.13.24-15.87.24C357.87,69.24,296,62.82,254.79,35,213.6,62.82,151.7,69.24,103.52,69.24c-5.74,0-11.06-.1-15.86-.24-7.87,62-17.16,175.56,1.6,220.62,39,93.71,130.42,164.36,165.51,188.92C289.87,453.92,381.41,383,420.32,289.62,439.11,244.49,429.81,131,421.93,69Z"></path><path fill="#ffda00" d="M254.79,35C296,62.82,357.87,69.24,406.06,69.24c5.75,0,11.06-.1,15.87-.24,7.88,62,17.18,175.5-1.61,220.62C381.41,383,289.87,453.92,254.78,478.54,219.69,454,128.29,383.32,89.27,289.62,70.5,244.55,79.8,131,87.67,69c4.79.14,10.12.24,15.86.24C151.7,69.24,213.6,62.82,254.79,35Zm0-35c-33.16,36.35-106,42.48-151.27,42.48-23,0-39-1.58-39-1.58s-29.23,188.82,0,259C117,425.83,254.79,510.74,254.79,510.74S392.57,425.83,445,299.9c29.24-70.18,0-259,0-259s-15.92,1.58-38.95,1.58C360.76,42.48,288,36.36,254.79,0Z"></path><path fill="#1bea87" d="M254.79,35C296,62.82,357.87,69.24,406.06,69.24c5.75,0,11.06-.1,15.87-.24,7.88,62,17.18,175.5-1.61,220.62C381.41,383,289.87,453.92,254.78,478.54,219.69,454,128.29,383.32,89.27,289.62,70.5,244.55,79.8,131,87.67,69c4.79.14,10.12.24,15.86.24C151.7,69.24,213.6,62.82,254.79,35Zm0-35c-33.16,36.35-106,42.48-151.27,42.48-23,0-39-1.58-39-1.58s-29.23,188.82,0,259C117,425.83,254.79,510.74,254.79,510.74S392.57,425.83,445,299.9c29.24-70.18,0-259,0-259s-15.92,1.58-38.95,1.58C360.76,42.48,288,36.36,254.79,0Z"></path><polygon fill="#fff" points="371.57 258.56 313.89 225.2 369.98 189.23 337.45 138.5 286.13 171.42 286.13 110.45 225.87 110.45 225.87 174.3 170.59 142.34 140.43 194.5 198.12 227.86 142.02 263.83 174.55 314.56 225.87 281.64 225.87 342.61 286.13 342.61 286.13 278.75 341.41 310.72 371.57 258.56"></polygon></svg>